<svg xmlns="http://www.w3.org/2000/svg" width="512" height="512" viewBox="0 0 512 512">
  <defs>
    <linearGradient id="bg" x1="0" y1="0" x2="1" y2="1">
      <stop offset="0" stop-color="#221708"/>
      <stop offset="1" stop-color="#0d0904"/>
    </linearGradient>
  </defs>
  <rect width="512" height="512" rx="114" fill="url(#bg)"/>
  <!-- glyph centered at ~76% (64px padding) -->
  <svg x="64" y="64" width="384" height="384" viewBox="357 311 310 310">
    <path fill="#c8a84a" d="M646.255615,587.263489 C643.909790,588.772095 641.691040,588.317505 639.560120,588.319519 C607.234253,588.350525 574.908264,588.386475 542.582703,588.288086 C538.516479,588.275696 535.402588,589.295410 532.345398,592.226562 C520.927429,603.173706 504.137970,602.903259 492.866486,591.663086 C490.386749,589.190247 487.937256,588.272400 484.536346,588.282043 C451.044342,588.377197 417.551971,588.344238 384.059692,588.331909 C377.491547,588.329468 376.769379,587.676697 376.767181,581.274597 C376.748352,526.454041 376.787903,471.633484 376.710663,416.813019 C376.704498,412.473602 378.292816,409.796783 382.099731,407.611816 C389.893951,403.138336 397.379547,398.129639 405.044220,393.426117 C406.783905,392.358582 407.746857,391.092529 407.635559,389.002960 C407.538208,387.174744 407.610413,385.338013 407.582916,383.505402 C407.460052,375.320801 409.106415,374.119171 417.037903,376.998596 C429.398407,381.485931 441.707092,386.116028 454.050049,390.652130 C456.682159,391.619415 459.494232,392.745239 458.422516,396.147308 C457.292664,399.733887 454.325745,398.722290 451.741852,397.780609 C441.421967,394.019623 431.115295,390.222473 420.794189,386.464935 C419.094147,385.846008 417.463989,384.892334 415.451324,385.125854 C413.734650,386.486176 414.397522,388.474487 414.395874,390.190247 C414.354004,433.180267 414.442108,476.170593 414.263397,519.159912 C414.242828,524.103577 416.180511,525.372437 420.626648,525.735168 C452.257874,528.315491 480.515228,539.102722 504.254852,560.658691 C505.314056,561.620483 506.205261,562.995544 508.050262,562.859741 C509.311951,561.267944 508.723999,559.373047 508.726105,557.629517 C508.762054,527.969849 508.725861,498.310028 508.780060,468.650360 C508.785492,465.667175 507.733246,461.221802 512.209045,461.103912 C517.061768,460.976044 516.131897,465.608185 516.141113,468.730499 C516.229309,498.556396 516.207764,528.382629 516.259521,558.208679 C516.262573,559.972717 515.743652,561.835815 516.957642,563.844421 C521.833374,560.033875 526.578430,556.224854 531.427368,552.553162 C552.753235,536.404724 577.146851,528.398621 603.477478,525.729126 C607.598694,525.311279 609.769958,524.170898 609.755310,519.441772 C609.621948,476.452118 609.679382,433.461823 609.663208,390.471741 C609.662659,388.997101 609.900696,387.458893 608.970642,385.989349 C606.937622,385.095520 605.170654,386.365784 603.378601,387.004517 C593.499146,390.525848 583.650330,394.133209 573.792908,397.716278 C571.206909,398.656250 568.364929,399.762024 567.035034,396.231445 C565.723572,392.749664 568.459717,391.590607 571.086182,390.620758 C583.735413,385.950073 596.365417,381.226288 609.038696,376.621918 C614.898926,374.492859 617.537109,376.089905 616.912903,382.420837 C616.199829,389.652039 618.915283,393.760834 625.202820,396.943665 C631.565918,400.164642 637.366272,404.484192 643.495544,408.186005 C646.192566,409.814850 647.387390,411.885193 647.383667,415.107574 C647.319092,470.927856 647.338867,526.748230 647.330933,582.568604 C647.330688,584.055542 647.471680,585.584656 646.255615,587.263489 M393.492950,513.878479 C390.518433,496.043274 387.543945,478.208038 384.569427,460.372833 C384.247009,498.030029 384.239044,535.651978 384.253723,573.273926 C384.256653,580.788696 384.326508,580.818909 391.710022,580.815735 C423.526276,580.802063 455.342712,580.831726 487.158630,580.721375 C491.248749,580.707214 494.179626,581.676086 497.017548,585.067017 C505.451721,595.144653 520.576477,595.130371 528.884216,584.989075 C531.740417,581.502563 534.716125,580.712219 538.755676,580.724243 C570.738281,580.819458 602.721375,580.779175 634.704102,580.840759 C638.144592,580.847351 640.769104,580.880676 640.750305,576.023987 C640.600647,537.391541 640.666870,498.758240 640.666870,460.125214 C639.932312,460.984283 639.640198,461.898956 639.484741,462.836273 C637.228882,476.432190 634.989319,490.030792 632.749878,503.629456 C629.618530,522.644653 626.426697,541.650146 623.396240,560.681396 C622.344788,567.284729 621.059631,568.544556 614.624207,567.026855 C603.227722,564.339050 591.679871,563.193481 580.008057,563.026306 C558.622620,562.720032 537.794006,565.463196 518.458923,575.237549 C514.439575,577.269348 511.264252,577.410950 507.278656,575.354858 C492.416718,567.687805 476.455261,564.101318 459.805359,563.276123 C442.595551,562.423279 425.541473,563.405396 408.749329,567.464783 C404.607391,568.466064 402.366272,567.090393 401.670807,562.900391 C399.005737,546.843811 396.299194,530.794067 393.492950,513.878479 M397.376343,494.200470 C400.613068,513.542175 403.794525,532.893433 407.114716,552.220825 C408.373077,559.545776 408.731110,559.494507 416.336456,558.191162 C430.128693,555.827393 443.962799,554.592102 458.041077,555.392700 C469.051178,556.018799 479.735992,558.211304 491.468933,560.380615 C482.297455,552.618774 472.688538,547.479858 462.576324,543.215576 C446.754425,536.543396 430.017914,533.909546 413.069702,532.432434 C409.146118,532.090515 407.490784,530.588379 407.279846,526.619446 C407.048431,522.264648 407.575531,517.968079 407.581390,513.646973 C407.624176,482.154327 407.722351,450.660675 407.489349,419.169647 C407.448334,413.620636 407.993042,407.924957 406.593475,402.050110 C400.344543,404.651855 395.577087,409.004028 389.941895,411.741302 C385.169556,414.059387 384.856384,417.473938 385.617523,422.002716 C389.610901,445.762634 393.440948,469.550049 397.376343,494.200470 M633.622192,453.264313 C635.442810,441.953796 637.238403,430.639099 639.109070,419.336884 C639.413391,417.497955 640.083679,415.590363 638.251831,414.293152 C631.803101,409.726532 625.224915,405.361298 617.143005,401.437164 C617.143005,410.381592 617.141235,418.326782 617.143311,426.271973 C617.151978,458.905518 617.134766,491.539124 617.201721,524.172546 C617.211243,528.824341 616.528076,532.123535 610.666138,532.594238 C602.411194,533.257080 594.190063,534.472717 586.058716,536.264648 C567.148682,540.431885 549.825806,547.878113 533.628052,560.823975 C552.703247,556.389038 570.703674,554.197021 589.097839,555.556152 C596.926331,556.134644 604.573303,557.572510 612.279663,558.770935 C614.826721,559.166992 616.265259,558.889282 616.742432,555.854431 C618.933716,541.917175 621.362732,528.017517 623.665344,514.097595 C626.971375,494.111237 630.241882,474.119049 633.622192,453.264313 z"/>
    <path fill="#3db8a0" d="M525.324768,340.676605 C530.236389,345.690094 534.854187,350.498260 539.595886,355.180878 C542.107300,357.661011 543.334534,360.390442 543.300842,364.036194 C543.154358,379.864990 543.157227,395.696625 543.300232,411.525482 C543.332825,415.126678 542.247253,417.839386 539.763245,420.424377 C532.030884,428.471252 524.451721,436.666718 516.891174,444.876404 C513.977112,448.040680 511.293213,447.977600 508.456757,444.873413 C500.589935,436.264160 492.723145,427.654602 484.801758,419.095703 C483.219269,417.385895 482.633331,415.512207 482.640625,413.214722 C482.693604,396.551544 482.717072,379.887787 482.620819,363.224976 C482.604156,360.334381 483.526642,358.095886 485.469482,356.062683 C492.950470,348.233704 500.344666,340.321564 507.851593,332.517700 C511.626007,328.593964 513.493042,328.633514 517.435669,332.516724 C520.046387,335.088104 522.537720,337.780731 525.324768,340.676605 M508.186340,366.766632 C503.493347,370.699219 501.697205,375.633545 502.307556,381.773438 C502.733276,386.056305 502.910675,390.496796 502.268677,394.725616 C500.870087,403.938751 506.078430,409.246826 512.711182,414.251587 C518.714233,409.281830 524.260132,404.460266 522.893616,395.312897 C522.139954,390.268188 522.215027,384.946045 522.883667,379.876556 C524.043457,371.084106 517.745667,367.451355 512.043396,361.847290 C510.676666,363.631348 509.666748,364.949646 508.186340,366.766632 M536.667542,392.495667 C536.667542,384.636383 536.667542,376.777130 536.667542,368.372467 C531.378296,370.528839 529.036438,373.194916 529.253784,378.198730 C529.577820,385.660126 529.426880,393.147095 529.314697,400.620758 C529.243713,405.350342 531.991699,407.155304 536.666992,408.369049 C536.666992,403.049866 536.666992,398.271088 536.667542,392.495667 M495.919037,376.008850 C495.924103,371.659821 493.190186,369.701233 488.933044,368.041290 C489.312866,381.670746 487.680756,394.758362 489.269379,408.211151 C495.969055,404.966614 496.034088,404.879028 496.022095,398.836884 C496.007538,391.524231 495.978180,384.211578 495.919037,376.008850 M517.576660,342.698883 C515.774719,342.279968 516.367737,343.713715 516.207214,344.510162 C514.241394,354.260681 518.862427,360.887787 526.649414,366.218109 C529.084595,364.436157 531.669556,362.749268 533.705566,359.603119 C528.439514,354.049408 523.236633,348.562317 517.576660,342.698883 M509.534363,351.520630 C509.258575,348.661865 508.982819,345.803070 508.621826,342.061005 C502.736267,348.492065 497.506012,354.207123 492.135681,360.075195 C494.765839,362.561218 496.953491,366.937134 499.852570,364.866058 C504.061920,361.858948 508.928009,358.466064 509.534363,351.520630 M502.488525,414.046143 C498.394409,410.516266 496.858978,410.806030 491.800537,416.393738 C497.385956,422.520691 503.005920,428.685516 509.264160,435.550568 C509.040283,427.221497 510.539215,419.510925 502.488525,414.046143 M517.617615,433.463379 C523.418274,428.087433 528.594910,422.178223 533.652405,415.732666 C531.014954,413.776917 529.220459,411.827393 526.646362,411.094910 C519.496887,417.079468 512.881226,423.067749 517.617615,433.463379 z"/>
  </svg>
</svg>
